<svg width="70" height="70" viewBox="0 0 70 70" fill="none" xmlns="http://www.w3.org/2000/svg">
<circle cx="35" cy="35" r="34.5" stroke="white"/>
<g clip-path="url(#clip0_1_1428)">
<path d="M43.7979 33.5962C43.716 33.5829 43.6332 33.5768 43.5504 33.5779H29.4408L29.7484 33.4348C30.0492 33.2925 30.3228 33.0987 30.5569 32.8624L34.5136 28.9057C35.0347 28.4083 35.1223 27.608 34.7211 27.0096C34.2542 26.372 33.3588 26.2336 32.7211 26.7005C32.6696 26.7382 32.6207 26.7793 32.5746 26.8236L25.4197 33.9786C24.8605 34.5371 24.86 35.4431 25.4186 36.0023C25.4189 36.0027 25.4193 36.0031 25.4197 36.0034L32.5746 43.1584C33.1342 43.7164 34.0403 43.7152 34.5984 43.1555C34.6423 43.1115 34.6833 43.0646 34.7211 43.0153C35.1223 42.4169 35.0347 41.6167 34.5136 41.1192L30.5641 37.1554C30.3541 36.9452 30.1128 36.769 29.8486 36.6331L29.4193 36.4399H43.4716C44.2026 36.467 44.844 35.9564 44.9813 35.2378C45.1078 34.4577 44.578 33.7228 43.7979 33.5962Z" fill="white"/>
</g>
<defs>
<clipPath id="clip0_1_1428">
<rect width="20" height="20" fill="white" transform="translate(25 25)"/>
</clipPath>
</defs>
</svg>
