<svg width="70" height="70" viewBox="0 0 70 70" fill="none" xmlns="http://www.w3.org/2000/svg">
<circle cx="35" cy="35" r="35" transform="matrix(-1 0 0 1 70 0)" fill="white"/>
<g clip-path="url(#clip0_1_1434)">
<path d="M26.2021 33.5962C26.284 33.5829 26.3668 33.5768 26.4496 33.5779H40.5592L40.2516 33.4348C39.9508 33.2925 39.6772 33.0987 39.4431 32.8624L35.4864 28.9057C34.9653 28.4083 34.8777 27.608 35.2789 27.0096C35.7458 26.372 36.6412 26.2336 37.2789 26.7005C37.3304 26.7382 37.3793 26.7793 37.4254 26.8236L44.5803 33.9786C45.1395 34.5371 45.14 35.4431 44.5814 36.0023C44.5811 36.0027 44.5807 36.0031 44.5803 36.0034L37.4254 43.1584C36.8658 43.7164 35.9597 43.7152 35.4016 43.1555C35.3577 43.1115 35.3167 43.0646 35.2789 43.0153C34.8777 42.4169 34.9653 41.6167 35.4864 41.1192L39.4359 37.1554C39.6459 36.9452 39.8872 36.769 40.1514 36.6331L40.5807 36.4399H26.5284C25.7974 36.467 25.156 35.9564 25.0187 35.2378C24.8922 34.4577 25.422 33.7228 26.2021 33.5962Z" fill="black"/>
</g>
<defs>
<clipPath id="clip0_1_1434">
<rect width="20" height="20" fill="white" transform="matrix(-1 0 0 1 45 25)"/>
</clipPath>
</defs>
</svg>
