<svg width="40" height="40" viewBox="0 0 40 40" fill="none" xmlns="http://www.w3.org/2000/svg">
<path d="M24.1978 26.5454L22.0044 22.6763C21.9876 22.6514 21.9762 22.6233 21.9708 22.5938C21.9654 22.5643 21.9662 22.5339 21.973 22.5047C21.9799 22.4755 21.9927 22.448 22.0107 22.424C22.0287 22.3999 22.0514 22.3798 22.0775 22.365C22.1036 22.3501 22.1325 22.3408 22.1623 22.3377C22.1922 22.3345 22.2223 22.3375 22.251 22.3465C22.2796 22.3555 22.3061 22.3703 22.3287 22.3901C22.3513 22.4098 22.3697 22.4339 22.3825 22.461L24.576 26.3301L24.1978 26.5454Z" fill="#0078E7"/>
<path d="M19.168 17.4544C19.1296 17.454 19.092 17.4436 19.0588 17.4242C19.0257 17.4048 18.9981 17.3771 18.9789 17.3439L16.7855 13.4777L17.1636 13.2595L19.3571 17.1286C19.3844 17.1781 19.3912 17.2363 19.376 17.2908C19.3607 17.3452 19.3247 17.3914 19.2756 17.4195C19.2431 17.4396 19.2062 17.4516 19.168 17.4544Z" fill="#0078E7"/>
<path d="M22.0538 27.1972C21.7317 27.2027 21.4101 27.1676 21.0967 27.0925C17.9695 26.2285 13.8618 18.9819 14.7258 15.8576C15.1191 14.7505 15.8732 13.8079 16.8669 13.1812C17.0589 13.0678 17.2538 12.9659 17.4487 12.8728C17.6276 12.7914 17.8305 12.78 18.0174 12.8408C18.2043 12.9017 18.3616 13.0304 18.4582 13.2016L20.1018 16.1107C20.1564 16.206 20.1903 16.3117 20.2013 16.4209C20.2123 16.5302 20.2002 16.6406 20.1658 16.7448C20.1307 16.8494 20.0744 16.9455 20.0003 17.0271C19.9262 17.1087 19.8359 17.1741 19.7353 17.219C19.5753 17.2888 19.4182 17.3616 19.2669 17.4401C18.6065 17.7718 18.2284 18.0714 18.1411 18.3332C17.9404 18.9558 18.1789 20.0088 18.7491 21.0154C19.3193 22.0219 20.0873 22.7608 20.7302 22.8976C20.9193 22.9412 21.312 22.8976 22.0742 22.3943C22.2196 22.3041 22.3651 22.2052 22.5076 22.1034C22.5972 22.0399 22.6991 21.9959 22.8067 21.9742C22.9144 21.9525 23.0254 21.9536 23.1326 21.9774C23.2397 22.0013 23.3407 22.0473 23.429 22.1126C23.5173 22.1779 23.5909 22.261 23.6451 22.3565L25.2916 25.2656C25.39 25.4366 25.4204 25.6384 25.3767 25.8309C25.333 26.0233 25.2186 26.1923 25.056 26.3041C24.8786 26.4205 24.6895 26.5368 24.4916 26.6445C23.7356 27.0228 22.8991 27.2125 22.0538 27.1972ZM17.7716 13.2336C17.7234 13.2345 17.6758 13.2454 17.632 13.2656C17.4516 13.3499 17.2684 13.4488 17.088 13.5565C16.1925 14.126 15.5096 14.9745 15.1447 15.971C14.7782 17.3005 15.4211 19.7121 16.7825 22.1121C18.144 24.5121 19.8836 26.3041 21.2131 26.6736C22.2544 26.8734 23.3325 26.7263 24.2822 26.2547C24.4684 26.1528 24.6458 26.0452 24.8116 25.9347C24.8829 25.8846 24.9329 25.8096 24.9517 25.7246C24.9705 25.6395 24.9569 25.5505 24.9135 25.475L23.2669 22.5659C23.2428 22.5237 23.2102 22.4868 23.1711 22.4578C23.1321 22.4287 23.0874 22.4081 23.04 22.3972C22.9902 22.3857 22.9384 22.385 22.8883 22.395C22.8381 22.405 22.7907 22.4256 22.7491 22.4554C22.6007 22.5601 22.4582 22.6619 22.3011 22.7463C21.5622 23.2234 21.0298 23.4008 20.6255 23.3107C19.8545 23.1361 19.008 22.3536 18.3622 21.2161C17.8589 20.3434 17.4284 19.075 17.7193 18.1848C17.8444 17.7979 18.272 17.4314 19.0604 17.0212C19.2175 16.9398 19.3833 16.8641 19.5491 16.7914C19.5944 16.7713 19.6351 16.7421 19.6687 16.7055C19.7022 16.669 19.7279 16.6259 19.744 16.579C19.7601 16.5313 19.7658 16.4806 19.7608 16.4304C19.7558 16.3803 19.7401 16.3318 19.7149 16.2881L18.0684 13.379C18.0343 13.3329 17.9894 13.2958 17.9377 13.2709C17.886 13.2461 17.829 13.2343 17.7716 13.2365V13.2336Z" fill="#0078E7"/>
<circle cx="20" cy="20" r="19.5" stroke="#0078E7"/>
</svg>
